<svg width="24" height="24" viewBox="0 0 24 24" fill="none" xmlns="http://www.w3.org/2000/svg">
<path d="M15.5819 12.0004C15.5819 13.9804 13.9819 15.5804 12.0019 15.5804C10.0219 15.5804 8.42188 13.9804 8.42188 12.0004C8.42188 10.0204 10.0219 8.42041 12.0019 8.42041C13.9819 8.42041 15.5819 10.0204 15.5819 12.0004Z" stroke="white" stroke-width="2" stroke-linecap="round" stroke-linejoin="round"/>
<path d="M12.0018 20.2702C15.5318 20.2702 18.8218 18.1902 21.1118 14.5902C22.0118 13.1802 22.0118 10.8102 21.1118 9.40021C18.8218 5.80021 15.5318 3.72021 12.0018 3.72021C8.4718 3.72021 5.1818 5.80021 2.8918 9.40021C1.9918 10.8102 1.9918 13.1802 2.8918 14.5902C5.1818 18.1902 8.4718 20.2702 12.0018 20.2702Z" stroke="white" stroke-width="2" stroke-linecap="round" stroke-linejoin="round"/>
</svg>
