<svg width="361" height="361" viewBox="0 0 361 361" fill="none" xmlns="http://www.w3.org/2000/svg">
<mask id="mask0_2133_932" style="mask-type:alpha" maskUnits="userSpaceOnUse" x="0" y="0" width="361" height="361">
<circle cx="180.5" cy="180.5" r="180.5" fill="#D9D9D9"/>
</mask>
<g mask="url(#mask0_2133_932)">
<path d="M186.898 121.958C186.898 115.445 192.178 110.166 198.69 110.166H234.065C240.578 110.166 245.857 115.445 245.857 121.958C245.857 128.47 240.578 133.749 234.065 133.749H212.84C211.537 133.749 210.482 134.805 210.482 136.108V154.974C210.482 156.277 211.537 157.333 212.84 157.333H234.065C240.578 157.333 245.857 162.612 245.857 169.124V204.499C245.857 207.626 244.614 210.626 242.403 212.837L207.028 248.212C202.423 252.817 194.957 252.817 190.352 248.212C185.748 243.608 185.748 236.141 190.352 231.536L221.582 200.306C222.025 199.864 222.273 199.264 222.273 198.638V183.274C222.273 181.971 221.218 180.916 219.915 180.916H198.69C192.178 180.916 186.898 175.637 186.898 169.124V121.958Z" fill="white"/>
<path d="M163.316 121.958C163.316 115.445 158.037 110.166 151.524 110.166C145.012 110.166 139.732 115.445 139.732 121.958V205.713C139.732 207.814 137.192 208.867 135.707 207.381L128.632 200.306C128.189 199.864 127.941 199.264 127.941 198.638V192.708C127.941 186.195 122.661 180.916 116.149 180.916C109.637 180.916 104.357 186.195 104.357 192.708V204.499C104.357 207.626 105.6 210.626 107.811 212.837L143.186 248.212C146.558 251.585 151.63 252.594 156.037 250.769C160.443 248.943 163.316 244.644 163.316 239.874V121.958Z" fill="white"/>
<path fill-rule="evenodd" clip-rule="evenodd" d="M49.3622 103.378C46.3177 82.0667 62.8542 63 84.3817 63H265.832C287.358 63 303.895 82.0667 300.85 103.378L282.349 232.887C281.153 241.264 276.992 248.935 270.625 254.507L198.401 317.702C185.063 329.373 165.15 329.373 151.812 317.702L79.5884 254.507C73.22 248.935 69.0602 241.264 67.8636 232.887L49.3622 103.378ZM84.3817 86.5833C77.2059 86.5833 71.6937 92.9389 72.7085 100.043L91.2099 229.551C91.6088 232.344 92.9954 234.901 95.1181 236.758L167.342 299.954C171.787 303.844 178.426 303.844 182.871 299.954L255.095 236.758C257.218 234.901 258.604 232.344 259.003 229.551L277.504 100.043C278.519 92.9389 273.007 86.5833 265.832 86.5833H84.3817Z" fill="white"/>
</g>
</svg>
