<svg width="62" height="62" viewBox="0 0 62 62" fill="none" xmlns="http://www.w3.org/2000/svg">
<path d="M44.0379 37.7465L43.8024 37.4621L35.6443 27.6067L35.3804 27.2879L35.6442 26.9691L52.9732 6.02859L52.9758 6.02547C53.2625 5.6847 53.4789 5.29055 53.6126 4.86574C53.7463 4.44094 53.7945 3.99388 53.7546 3.55034C53.7147 3.10679 53.5874 2.67553 53.3801 2.28141C53.1727 1.88728 52.8894 1.53809 52.5465 1.25396C52.2036 0.969827 51.8078 0.756371 51.382 0.625893L51.5284 0.148393L51.382 0.625892C50.9562 0.495414 50.5088 0.450493 50.0656 0.49372C49.6224 0.536947 49.1921 0.667466 48.7995 0.877755L48.5634 0.437011L48.7995 0.877756C48.4069 1.08805 48.0599 1.37395 47.7783 1.71898L47.7761 1.72165L31.3849 21.5281L30.9997 21.9936L30.6145 21.528L14.2259 1.72171C14.2259 1.72168 14.2258 1.72164 14.2258 1.72161C13.6547 1.03179 12.8329 0.59708 11.9413 0.513108C11.0497 0.429133 10.1612 0.702807 9.47129 1.27393C8.78141 1.84504 8.34666 2.66682 8.26269 3.55848C8.17871 4.45014 8.45239 5.33864 9.02351 6.02852L9.02352 6.02854L26.3551 26.9665L26.6188 27.285L26.3554 27.6038L18.2101 37.4618L17.9744 37.7471L17.6327 37.6049C14.8687 36.4554 11.7842 36.3346 8.93865 37.2642C6.09312 38.1939 3.67499 40.1126 2.12279 42.6722C0.570594 45.2319 -0.0128763 48.2631 0.478197 51.2161C0.96927 54.1691 2.50237 56.8483 4.79945 58.7679C7.09653 60.6875 10.0055 61.7202 12.9987 61.6789C15.992 61.6376 18.8713 60.525 21.1146 58.5428C23.3578 56.5606 24.8164 53.8401 25.2258 50.8747C25.6353 47.9092 24.9684 44.8953 23.3461 42.3794L23.1478 42.0718L23.3811 41.7898L30.6144 33.0452L30.9997 32.5794L31.385 33.0452L38.6183 41.7898L38.8508 42.0709L38.6541 42.3781C37.1692 44.697 36.4986 47.4443 36.7483 50.1866C36.9979 52.9288 38.1535 55.5099 40.0327 57.5226C41.9119 59.5352 44.4078 60.8649 47.1265 61.3018C49.8453 61.7386 52.632 61.2579 55.0472 59.9353C57.4624 58.6127 59.3684 56.5236 60.4646 53.9976C61.5608 51.4716 61.7848 48.6525 61.1011 45.9851C60.4174 43.3177 58.8651 40.9539 56.689 39.2666C54.513 37.5793 51.8371 36.6646 49.0835 36.6668L44.0379 37.7465ZM44.0379 37.7465L44.379 37.6052M44.0379 37.7465L44.379 37.6052M44.379 37.6052C45.8705 36.9872 47.4689 36.6683 49.0834 36.6668L44.379 37.6052ZM9.76813 53.7951C10.7 54.4178 11.7956 54.7501 12.9164 54.7501C14.4193 54.7501 15.8606 54.1531 16.9233 53.0904C17.986 52.0277 18.583 50.5863 18.583 49.0835C18.583 47.9627 18.2507 46.8671 17.628 45.9352C17.0054 45.0033 16.1203 44.277 15.0849 43.8481C14.0494 43.4192 12.9101 43.307 11.8108 43.5257C10.7116 43.7443 9.70192 44.284 8.90942 45.0765C8.11692 45.869 7.57722 46.8787 7.35857 47.9779C7.13993 49.0772 7.25214 50.2165 7.68104 51.252C8.10994 52.2874 8.83625 53.1725 9.76813 53.7951ZM45.9348 53.7951C46.8667 54.4178 47.9623 54.7501 49.083 54.7501C50.5859 54.7501 52.0273 54.1531 53.09 53.0904C54.1527 52.0277 54.7497 50.5863 54.7497 49.0835C54.7497 47.9627 54.4174 46.8671 53.7947 45.9352C53.172 45.0033 52.287 44.277 51.2516 43.8481C50.2161 43.4192 49.0767 43.307 47.9775 43.5257C46.8783 43.7443 45.8686 44.284 45.0761 45.0765C44.2836 45.869 43.7439 46.8787 43.5252 47.9779C43.3066 49.0772 43.4188 50.2165 43.8477 51.252C44.2766 52.2874 45.0029 53.1725 45.9348 53.7951Z" fill="white" stroke="white"/>
</svg>
