<svg width="100" height="100" viewBox="0 0 100 100" fill="none" xmlns="http://www.w3.org/2000/svg">
<g clip-path="url(#clip0_53_2699)">
<path d="M80.8423 46.4728L72.9088 24.9407C71.8161 21.9673 68.6877 20.3398 65.6135 21.1561L52.5857 24.6307V21.5333C52.5702 18.1543 47.4346 18.1569 47.4191 21.5333V26.0076L33.8462 29.6269C30.6042 30.4923 27.9743 32.8896 26.8118 36.0387L19.1626 56.8061C19.0567 57.0929 19.0024 58.4775 19.0024 58.4775C18.8009 68.6145 31.2707 74.6673 38.6306 67.421C40.9323 65.2355 42.2524 62.1614 42.2524 58.989C42.2524 58.989 42.1982 57.098 42.0974 56.8139L34.1666 35.0079C34.4869 34.8452 34.8253 34.7134 35.1792 34.6204L47.4191 31.3551V75.7833H31.9191C28.5401 75.7988 28.5427 80.9344 31.9191 80.9499H68.0858C71.4648 80.9344 71.4622 75.7988 68.0858 75.7833H52.5857V29.9756L65.2337 26.6018L57.9126 46.4702C57.8067 46.7569 57.7524 48.1416 57.7524 48.1416C57.7524 54.6154 62.5858 59.9397 68.7574 60.2626C71.984 60.4331 75.0452 59.3042 77.3806 57.0877C79.6823 54.9022 81.0024 51.828 81.0024 48.6557C81.0024 48.6557 80.9482 46.7569 80.8423 46.4702V46.4728ZM35.9801 55.1166H25.2902L30.6713 40.513L35.9801 55.1166ZM69.3774 30.2985L74.7146 44.7833H64.0402L69.3774 30.2985Z" fill="white"/>
</g>
<defs>
<clipPath id="clip0_53_2699">
<rect width="62" height="62" fill="white" transform="translate(19 19)"/>
</clipPath>
</defs>
</svg>
